<?xml version="1.0" encoding="utf-8"?>
<!-- Generator: Adobe Illustrator 22.0.1, SVG Export Plug-In . SVG Version: 6.00 Build 0)  -->
<svg version="1.1" id="Layer_1" xmlns="http://www.w3.org/2000/svg" xmlns:xlink="http://www.w3.org/1999/xlink" x="0px" y="0px"
	 viewBox="0 0 340.2 34" style="enable-background:new 0 0 340.2 34;" xml:space="preserve">
<style type="text/css">
	.st0{fill:#5F1022;}
	.st1{fill:#AE591E;}
	.st2{fill:#EAAA1D;}
</style>
<path class="st0" d="M335.3,6.7H335c0,0-0.2,0-0.3,0.3c-0.3,0.7-1.6,2.7-4.1,3.5v0.2c0,0,0,0.4,0.3,0.4h1.8l-1.5,7.3
	c-0.1,0.6-0.3,1.5-0.3,2.3c0,1.1,0.3,2,1.6,2c2.3,0,3.5-1.8,3.5-1.8l-0.2-0.4c0,0-0.7,0.8-1.8,0.8c-0.8,0-1-0.7-1-1.5
	c0-0.6,0.1-1.1,0.2-1.7l1.5-7.1h3.6v-0.6c0-0.2-0.1-0.3-0.3-0.3h-3.3L335.3,6.7z M322.2,18.9c-0.3,0-0.4-0.2-0.4-0.2
	c1.8-4.9,1.9-8.1,1.9-8.4c-2.6,0-3.8,0.9-3.8,0.9c0,0.1,0,0.3,0.1,0.4c0.1,0,0.2,0,0.3,0c0.6,0,1.3,0.4,1.3,2.1
	c0,2.2-1.5,5.4-1.5,8.6v0.1c0.1,0,0.6,0.1,1.4,0.1c0.4,0,0.7,0,1.2-0.1c-0.1-0.3-0.2-0.6-0.2-1.1c0-3.1,2.9-9,4.7-9
	c0.2,0,0.6,0,0.9,0.7c0.5-0.2,1-0.8,1-1.6c0-0.6-0.4-1.2-1.2-1.2C324.9,10.2,322.2,18.9,322.2,18.9 M314.3,14
	c-0.2,0.9-0.7,2.3-1.3,3.5c-0.9,1.8-2.1,3.3-3.2,3.3c-1.1,0-1.4-1.5-1.4-2.4c0-1.9,0.5-3.9,1.5-5.3c0.8-1.2,2.2-1.9,3.6-1.9
	c0.6,0,1.3,0.1,1.7,0.3C315.1,11.6,314.7,12.6,314.3,14 M306.5,19.7c0,0.8,0.2,1.5,0.5,2c0.4,0.6,0.9,0.9,1.6,0.9
	c2.4,0,4-2.5,5.1-4.8c0.9-2,1.4-3.8,1.4-3.8c0.3,0,0.4,0.2,0.4,0.2c-1.6,3.8-1.8,6.5-1.8,7.7c0,0.4,0,0.6,0,0.6c2.7,0,4-0.9,4-0.9
	c0-0.1,0-0.4-0.1-0.4c-0.2,0-0.4,0.1-0.6,0.1c-0.6,0-1.1-0.3-1.1-1.6c0-0.3,0-0.6,0.1-1c0.2-1.6,0.5-3.2,0.8-5.1
	c0.5-2.5,0.8-2.9,0.8-2.9s-1-0.6-3.6-0.6c-1.4,0-3.6,0.9-5.1,2.6c-1,1.1-1.7,2.5-2.1,4.3C306.6,17.9,306.5,18.7,306.5,19.7
	 M294,11.2c0.8,0,1.6,0.5,2,1.7c0.2,0.5,0.4,1.3,0.4,2.1c0,1.8-0.4,3.4-1.2,4.7c-0.8,1.3-2,2-3.3,2c-0.6,0-1-0.2-1.4-0.6
	c-0.6-0.7-1-1.9-1-3.3C289.6,14.3,291.4,11.2,294,11.2 M294.3,10.2c-1.4,0-3.4,0.7-4.8,2.3c-1.1,1.2-2,3.2-2,5.6
	c0,1.8,0.6,3.3,1.9,4.1c0.6,0.3,1.3,0.5,2.1,0.5c0.9,0,1.5,0,2.6-0.5c1-0.4,2-1.2,2.8-2.2c1-1.2,1.7-3,1.7-5.2c0-1-0.2-2.1-0.7-2.8
	C297.1,10.8,296.1,10.2,294.3,10.2 M280.6,22.7c1.9,0,4.4-1.1,4.4-3.4c0-2.6-2.2-3.4-3.8-4.9c-0.6-0.6-1-1.3-1-1.8
	c0-0.9,0.7-1.6,2-1.6c1.2,0,1.6,0.9,1.6,1.9c0,0.2,0,0.5-0.1,0.7c0.2,0.1,0.5,0.1,0.8,0.1c0.6,0,1.3-0.3,1.3-1.3
	c0-1.9-2.4-2.2-3.6-2.2c-1.5,0-3.8,0.8-3.8,3.3c0,0.6,0.1,1.3,1.2,2.4c1.2,1,3.4,1.8,3.4,3.8c0,1.7-1.4,2.2-2.4,2.2
	c-0.9,0-1.7-0.7-1.7-1.8c0-0.3,0-0.6,0.1-1c-0.2-0.1-0.5-0.1-0.8-0.1c-0.6,0-1.3,0.3-1.3,1.4C277,22.2,279.4,22.7,280.6,22.7
	 M274.3,8c-0.5,3.9-2.7,10.1-2.7,13.2c0,0.5,0.1,0.9,0.2,1.2c0.1,0,0.7,0.1,1.5,0.1c0.4,0,0.9,0,1.3-0.1c-0.6-0.5-0.8-1.3-0.8-2.4
	c0-3.1,1.7-7.9,2.2-10.8c0.3-1.5,0.4-3.1,0.4-3.9c0-0.8-0.1-1-0.1-1c-2.6,0-3.8,0.9-3.8,0.9c0,0.1,0,0.3,0.1,0.4c0.1,0,0.3,0,0.4,0
	c0.6,0,1.3,0.4,1.3,1.8C274.3,7.6,274.3,7.8,274.3,8 M266,14c-0.2,0.9-0.7,2.3-1.3,3.5c-0.9,1.8-2.1,3.3-3.2,3.3
	c-1.1,0-1.4-1.5-1.4-2.4c0-1.9,0.5-3.9,1.5-5.3c0.8-1.2,2.2-1.9,3.6-1.9c0.6,0,1.3,0.1,1.7,0.3C266.8,11.6,266.4,12.6,266,14
	 M258.2,19.7c0,0.8,0.2,1.5,0.5,2c0.4,0.6,0.9,0.9,1.6,0.9c2.4,0,4-2.5,5.1-4.8c0.9-2,1.4-3.8,1.4-3.8c0.3,0,0.4,0.2,0.4,0.2
	c-1.6,3.8-1.8,6.5-1.8,7.7c0,0.4,0,0.6,0,0.6c2.7,0,4-0.9,4-0.9c0-0.1,0-0.4-0.1-0.4c-0.2,0-0.4,0.1-0.6,0.1c-0.6,0-1.1-0.3-1.1-1.6
	c0-0.3,0-0.6,0.1-1c0.2-1.6,0.5-3.2,0.8-5.1c0.5-2.5,0.8-2.9,0.8-2.9s-1-0.6-3.6-0.6c-1.4,0-3.6,0.9-5.1,2.6c-1,1.1-1.7,2.5-2.1,4.3
	C258.3,17.9,258.2,18.7,258.2,19.7 M245,22.7c1.9,0,4.4-1.1,4.4-3.4c0-2.6-2.2-3.4-3.8-4.9c-0.6-0.6-1-1.3-1-1.8
	c0-0.9,0.7-1.6,2-1.6c1.2,0,1.6,0.9,1.6,1.9c0,0.2,0,0.5-0.1,0.7c0.2,0.1,0.5,0.1,0.8,0.1c0.6,0,1.3-0.3,1.3-1.3
	c0-1.9-2.4-2.2-3.6-2.2c-1.5,0-3.8,0.8-3.8,3.3c0,0.6,0.1,1.3,1.2,2.4c1.2,1,3.4,1.8,3.4,3.8c0,1.7-1.4,2.2-2.4,2.2
	c-0.9,0-1.7-0.7-1.7-1.8c0-0.3,0-0.6,0.1-1c-0.2-0.1-0.5-0.1-0.8-0.1c-0.6,0-1.3,0.3-1.3,1.4C241.3,22.2,243.8,22.7,245,22.7
	 M237.8,6c0,1.1,0.6,1.4,1.4,1.4c0.8,0,1.5-0.4,1.5-1.4c0-1.1-0.7-1.5-1.5-1.5C238.5,4.5,237.8,4.9,237.8,6 M235.9,18.4
	c0.5-1.5,1-2.9,1.3-4.4c0.1-0.4,0.1-0.7,0.1-1c0-1.2-0.6-1.5-1.2-1.5c-0.1,0-0.3,0-0.4,0c-0.1-0.1-0.1-0.4-0.1-0.4
	c0,0,1.2-0.9,3.8-0.9c0,0,0.1,0.4,0.1,1.1c0,0.8-0.1,1.9-0.5,3.4s-1.3,3.9-1.3,5.1c0,1.4,0.6,1.7,1.1,1.7c0.1,0,0.3,0,0.4-0.1
	c0.1,0.1,0.1,0.4,0.1,0.4c-0.6,0.4-2,0.8-3.1,0.8c-0.3,0-0.6,0-0.8-0.1c0,0,0-0.3,0-0.8C235.3,21.1,235.4,19.9,235.9,18.4
	 M225.7,6.7h-0.3c0,0-0.2,0-0.3,0.3c-0.3,0.7-1.6,2.7-4.1,3.5v0.2c0,0,0,0.4,0.3,0.4h1.8l-1.5,7.3c-0.1,0.6-0.3,1.5-0.3,2.3
	c0,1.1,0.3,2,1.6,2c2.3,0,3.5-1.8,3.5-1.8l-0.2-0.4c0,0-0.7,0.8-1.8,0.8c-0.8,0-1-0.7-1-1.5c0-0.6,0.1-1.1,0.2-1.7L225,11h3.6v-0.6
	c0-0.2-0.1-0.3-0.3-0.3H225L225.7,6.7z M212.6,18.9c-0.3,0-0.4-0.2-0.4-0.2c1.8-4.9,1.9-8.1,1.9-8.4c-2.6,0-3.8,0.9-3.8,0.9
	c0,0.1,0,0.3,0.1,0.4c0.1,0,0.2,0,0.3,0c0.6,0,1.3,0.4,1.3,2.1c0,2.2-1.5,5.4-1.5,8.6v0.1c0.1,0,0.6,0.1,1.4,0.1
	c0.4,0,0.7,0,1.2-0.1c-0.1-0.3-0.2-0.6-0.2-1.1c0-3.1,2.9-9,4.7-9c0.2,0,0.6,0,0.9,0.7c0.5-0.2,1-0.8,1-1.6c0-0.6-0.4-1.2-1.2-1.2
	C215.3,10.2,212.6,18.9,212.6,18.9 M204.7,14c-0.2,0.9-0.7,2.3-1.3,3.5c-0.9,1.8-2.1,3.3-3.2,3.3c-1.1,0-1.4-1.5-1.4-2.4
	c0-1.9,0.5-3.9,1.5-5.3c0.8-1.2,2.2-1.9,3.6-1.9c0.6,0,1.3,0.1,1.7,0.3C205.5,11.6,205.1,12.6,204.7,14 M196.9,19.7
	c0,0.8,0.2,1.5,0.5,2c0.4,0.6,0.9,0.9,1.6,0.9c2.4,0,4-2.5,5.1-4.8c0.9-2,1.4-3.8,1.4-3.8c0.3,0,0.4,0.2,0.4,0.2
	c-1.6,3.8-1.8,6.5-1.8,7.7c0,0.4,0,0.6,0,0.6c2.7,0,4-0.9,4-0.9c0-0.1,0-0.4-0.1-0.4c-0.2,0-0.4,0.1-0.6,0.1c-0.6,0-1.1-0.3-1.1-1.6
	c0-0.3,0-0.6,0.1-1c0.2-1.6,0.5-3.2,0.8-5.1c0.5-2.5,0.8-2.9,0.8-2.9s-1-0.6-3.6-0.6c-1.4,0-3.6,0.9-5.1,2.6c-1,1.1-1.7,2.5-2.1,4.3
	C197,17.9,196.9,18.7,196.9,19.7 M184.7,11.4l-1.9,10.6c-1.1,6.1-1.7,7.2-3,7.2c-1.2,0-1.2-1.9-1.2-1.9c-0.2-0.2-0.5-0.3-0.9-0.3
	c-1,0-1.3,0.7-1.3,1.4c0,1.2,1.2,1.8,2.7,1.8c1.2,0,4.3-0.4,5.6-7.9l1.9-10.8h3.6v-0.6c0-0.2-0.1-0.3-0.3-0.3h-3.1
	c0.4-2.1,1.2-5.7,3-5.7c1.4,0,1.7,1.1,1.7,2c0,0.3,0,0.6-0.1,0.7c0.2,0,0.4,0.1,0.6,0.1c0.7,0,1.6-0.4,1.6-1.4
	c0-1.8-1.7-2.2-3.6-2.2c-2.4,0-4.4,2.3-5.1,6.5h-3.3V11c0,0.2,0.1,0.3,0.3,0.3H184.7z M175.8,11.2c0.8,0,1.6,0.5,2,1.7
	c0.2,0.5,0.4,1.3,0.4,2.1c0,1.8-0.4,3.4-1.2,4.7c-0.8,1.3-2,2-3.3,2c-0.6,0-1-0.2-1.4-0.6c-0.6-0.7-1-1.9-1-3.3
	C171.3,14.3,173.2,11.2,175.8,11.2 M176,10.2c-1.4,0-3.4,0.7-4.8,2.3c-1.1,1.2-2,3.2-2,5.6c0,1.8,0.6,3.3,1.9,4.1
	c0.6,0.3,1.3,0.5,2.1,0.5c0.9,0,1.5,0,2.6-0.5c1-0.4,2-1.2,2.8-2.2c1-1.2,1.7-3,1.7-5.2c0-1-0.2-2.1-0.7-2.8
	C178.9,10.8,177.8,10.2,176,10.2 M156.2,22.7c1.9,0,4.4-1.1,4.4-3.4c0-2.6-2.2-3.4-3.8-4.9c-0.6-0.6-1-1.3-1-1.8
	c0-0.9,0.7-1.6,2-1.6c1.2,0,1.6,0.9,1.6,1.9c0,0.2,0,0.5-0.1,0.7c0.2,0.1,0.5,0.1,0.8,0.1c0.6,0,1.3-0.3,1.3-1.3
	c0-1.9-2.4-2.2-3.6-2.2c-1.5,0-3.8,0.8-3.8,3.3c0,0.6,0.1,1.3,1.2,2.4c1.2,1,3.4,1.8,3.4,3.8c0,1.7-1.4,2.2-2.4,2.2
	c-0.9,0-1.7-0.7-1.7-1.8c0-0.3,0-0.6,0.1-1c-0.2-0.1-0.5-0.1-0.8-0.1c-0.6,0-1.3,0.3-1.3,1.4C152.5,22.2,155,22.7,156.2,22.7
	 M145.1,14.1c1-1.5,2.2-2.6,3.2-2.6c0.6,0,0.9,0.3,0.9,1.2c0,0.9-0.6,1.6-1.4,2.2c-1,0.7-3,1.2-3.8,1.3
	C144.1,15.9,144.7,14.7,145.1,14.1 M142.9,7.9c-0.4,3.8-2.5,10.2-2.5,13.9c0,0.2,0,0.4,0,0.6c0,0,0.4,0.1,1.2,0.1
	c0.3,0,0.8,0,1.2-0.1c-0.1-0.3-0.2-0.9-0.2-1.3c0-0.3,0.1-2,1-4.2l2.7,4.1c0.7,1,1.4,1.6,2.4,1.6c1.1,0,1.6-1,1.6-2
	c-0.1,0.2-0.4,0.3-0.7,0.3c-0.5,0-1.1-0.2-1.7-1.1l-2.4-3.4c1.9-0.4,5.7-1.4,5.7-4.3c0-1.4-1-1.9-1.7-1.9c-2.2,0-4.1,1.8-5.4,4.1
	c-0.7,1.2-1.4,2.8-1.7,3.9c-0.3,0-0.4-0.2-0.4-0.2c1.2-3.5,3-8.6,3-12.3c0-0.6-0.1-1.1-0.2-1.6c-0.1,0-2.6,0.1-3.9,1.1
	c0,0,0,0.3,0.1,0.5c0.1,0,0.3-0.1,0.6-0.1c0.6,0,1.2,0.4,1.2,1.8C142.9,7.6,142.9,7.8,142.9,7.9 M132.8,18.9c-0.3,0-0.4-0.2-0.4-0.2
	c1.8-4.9,1.9-8.1,1.9-8.4c-2.6,0-3.8,0.9-3.8,0.9c0,0.1,0,0.3,0.1,0.4c0.1,0,0.2,0,0.3,0c0.6,0,1.3,0.4,1.3,2.1
	c0,2.2-1.5,5.4-1.5,8.6v0.1c0.1,0,0.6,0.1,1.4,0.1c0.4,0,0.7,0,1.2-0.1c-0.1-0.3-0.2-0.6-0.2-1.1c0-3.1,2.9-9,4.7-9
	c0.2,0,0.6,0,0.9,0.7c0.5-0.2,1-0.8,1-1.6c0-0.6-0.4-1.2-1.2-1.2C135.5,10.2,132.8,18.9,132.8,18.9 M124,11.2c0.8,0,1.6,0.5,2,1.7
	c0.2,0.5,0.4,1.3,0.4,2.1c0,1.8-0.4,3.4-1.2,4.7c-0.8,1.3-2,2-3.3,2c-0.6,0-1-0.2-1.4-0.6c-0.6-0.7-1-1.9-1-3.3
	C119.5,14.3,121.4,11.2,124,11.2 M124.2,10.2c-1.4,0-3.4,0.7-4.8,2.3c-1.1,1.2-2,3.2-2,5.6c0,1.8,0.6,3.3,1.9,4.1
	c0.6,0.3,1.3,0.5,2.1,0.5c0.9,0,1.5,0,2.6-0.5c1-0.4,2-1.2,2.8-2.2c1-1.2,1.7-3,1.7-5.2c0-1-0.2-2.1-0.7-2.8
	C127.1,10.8,126,10.2,124.2,10.2 M109.3,10.3c-0.5,0-0.5,0-0.7,0c-1.1,0-1.9,0.3-1.9,0.3c0,0,0.2,1.4,0.2,2.5c0,4-3.1,8-4.8,8
	c-0.5,0-1-0.2-1-1.2c0-0.1,0-0.2,0-0.4c0.2-1.5,0.9-4.6,0.9-7.7c0-0.6,0-1.1-0.2-1.6h-0.2c-0.6,0-2.4,0.1-3.6,0.9
	c0,0.3,0.1,0.4,0.1,0.4c0.1,0,0.2,0,0.4,0c0.9,0,1.3,0.5,1.3,2.2c0,2.4-0.9,5.7-0.9,7.1c0,1.1,0.6,1.8,1.8,1.8
	c2.6,0,4.4-2.3,5.7-5.3c-0.2,1.2-0.4,2.2-0.4,3.1c0,1.2,0.4,2.1,1.8,2.1c1.8,0,4.1-1.5,5.8-4.3c1.3-2.2,2.3-5.1,2.3-8.2
	c0,0-0.2,0-0.6,0c-0.8,0-2.3,0.2-3.3,1.3c0,0,0,0.3,0.1,0.5c0.1,0,0.2,0,0.3,0c0.6,0,1.6,0.5,1.6,2c0,1.2-0.4,2.6-0.9,3.8
	c-1,2-2.5,3.3-3.8,3.3c-0.6,0-1.2-0.1-1.2-1.2c0-0.2,0-0.4,0-0.6c0.2-1.5,0.5-3.1,0.8-5.6S109.3,10.3,109.3,10.3 M80.9,22.5
	c-0.1,0-3.9,0.7-3.9,4c0,3.1,3,3.6,4.8,3.6c3.7,0,5.7-2.3,6.1-6.6c0.4-4.2,1.2-9.3,1.2-9.3s0.2-2.2,0.9-3.6c0.1,0-1.1-0.3-2.6-0.3
	c-1.2,0-3.4,0.4-5.3,2c-1.5,1.3-3,4.3-3,7.2C79,22.2,80.9,22.5,80.9,22.5 M87.9,14.3c0,0-1.3,4.5-1.8,8.2c-0.6,3.9-1.1,6.6-4.4,6.6
	c-1.7,0-2.8-0.9-2.8-2.6c0-1.8,1.1-3.3,3.3-4c4-1.2,5.3-8.4,5.3-8.4S87.8,14.1,87.9,14.3 M87.5,11.6c0,0-1.7,9.5-5.1,9.5
	c-0.6,0-1.4-0.4-1.4-2.8c0-1.9,0.7-4.1,1.9-5.5c0.8-0.9,1.8-1.5,3-1.5C87,11.4,87.5,11.6,87.5,11.6 M65.2,11.7c0.1,0,0.3,0,0.4,0
	c0.6,0,1.2,0.3,1.2,1.9c0,2.4-1.2,4.9-1.3,8.9c0.1,0,0.6,0.2,1.4,0.2c0.4,0,0.7,0,1.2-0.1c-0.1-0.3-0.2-0.6-0.2-1.1
	c0-1.8,1.1-4.6,2.5-6.7c1-1.5,2.1-2.6,3.1-2.6c0.4,0,0.9,0.3,0.9,1c0,1-1.6,4.6-1.6,8c0,0.6,0,1.1,0.2,1.6c0,0,2.9,0,3.9-1.1
	c0-0.1,0-0.3-0.1-0.5c-0.1,0-0.3,0.1-0.6,0.1c-0.5,0-1.3-0.3-1.3-1.7c0-2.2,1.5-5.8,1.5-7.2c0-1.1-0.6-1.8-1.8-1.8
	c-2.1,0-3.7,1.8-4.9,3.8c-1.4,2.4-2.2,4.8-2.2,4.8c-0.3,0-0.4-0.2-0.4-0.2c1.5-4,1.7-6.7,1.7-7.9c0-0.3,0-0.5,0-0.5
	c-2.6,0-3.8,0.9-3.8,0.9C65.1,11.3,65.1,11.5,65.2,11.7 M61.1,6c0,1.1,0.6,1.4,1.4,1.4S64,7.1,64,6c0-1.1-0.7-1.5-1.5-1.5
	S61.1,4.9,61.1,6 M59.2,18.4c0.5-1.5,1-2.9,1.3-4.4c0.1-0.4,0.1-0.7,0.1-1c0-1.2-0.6-1.5-1.2-1.5c-0.1,0-0.3,0-0.4,0
	c-0.1-0.1-0.1-0.4-0.1-0.4c0,0,1.2-0.9,3.8-0.9c0,0,0.1,0.4,0.1,1.1c0,0.8-0.1,1.9-0.5,3.4S61,18.6,61,19.8c0,1.4,0.6,1.7,1.1,1.7
	c0.1,0,0.3,0,0.4-0.1c0.1,0.1,0.1,0.4,0.1,0.4c-0.6,0.4-2,0.8-3.1,0.8c-0.3,0-0.6,0-0.8-0.1c0,0,0-0.3,0-0.8
	C58.6,21.1,58.7,19.9,59.2,18.4 M45.6,22.4c0.1,0,0.6,0.1,1.3,0.1c0.3,0,0.7,0,1.1-0.1c-0.1-0.3-0.2-0.8-0.2-1.2
	c0-1.4,0.7-3.5,1.6-5.3c1.1-2.2,2.5-4,3.5-4c0.6,0,1,0.4,1,1c0,0.8-0.8,2.8-1.2,4.9c-0.2,1-0.4,2-0.4,3.1c0,0.6,0.1,1.1,0.2,1.6
	c0.1,0,2.6,0,3.9-1.1c0-0.1,0-0.3-0.1-0.5c-0.1,0-0.3,0.1-0.5,0.1c-0.6,0-1.4-0.2-1.4-1.7c0-2.2,1.5-5.9,1.5-7.3
	c0-1.1-0.6-1.8-1.8-1.8c-2.3,0-4.3,2.9-5.3,5.3c-0.3,0.6-0.5,1.2-0.7,1.7c-0.2,0.5-0.5,1.6-0.5,1.6c-0.3,0-0.4-0.2-0.4-0.2
	c0.1-0.4,0.2-1.1,0.4-1.7c0.6-1.9,1.5-3.8,1.5-4.9s-0.6-1.8-1.8-1.8c-2.9,0-4.9,4.1-5.9,6.6c-0.4,1.2-0.7,2-0.7,2
	c-0.3,0-0.4-0.2-0.4-0.2c1.5-4,1.7-7,1.7-7.9c0-0.3,0-0.5,0-0.5c-2.6,0-3.8,0.9-3.8,0.9c0,0.1,0,0.3,0.1,0.4c0.1,0,0.2,0,0.4,0
	c0.6,0,1.2,0.4,1.2,1.9c0,2.7-1.3,5.3-1.3,8.5v0.3c0.1,0,0.6,0.1,1.4,0.1c0.4,0,0.7,0,1.1-0.1C41.1,22,41,21.7,41,21.3
	c0-3.1,3-9.4,5.1-9.4c0.4,0,0.9,0.3,0.9,1c0,1.2-1.6,4.8-1.6,7.9C45.5,21.3,45.5,21.9,45.6,22.4 M32.7,14c-0.2,0.9-0.7,2.3-1.3,3.5
	c-0.9,1.8-2.1,3.3-3.2,3.3c-1.1,0-1.4-1.5-1.4-2.4c0-1.9,0.5-3.9,1.5-5.3c0.8-1.2,2.2-1.9,3.6-1.9c0.6,0,1.3,0.1,1.7,0.3
	C33.5,11.6,33,12.6,32.7,14 M24.9,19.7c0,0.8,0.2,1.5,0.5,2c0.4,0.6,0.9,0.9,1.6,0.9c2.4,0,4-2.5,5.1-4.8c0.9-2,1.4-3.8,1.4-3.8
	c0.3,0,0.4,0.2,0.4,0.2C32.2,18.1,32,20.8,32,22c0,0.4,0,0.6,0,0.6c2.7,0,4-0.9,4-0.9c0-0.1,0-0.4-0.1-0.4c-0.2,0-0.4,0.1-0.6,0.1
	c-0.6,0-1.1-0.3-1.1-1.6c0-0.3,0-0.6,0.1-1c0.2-1.6,0.5-3.2,0.8-5.1c0.5-2.5,0.8-2.9,0.8-2.9s-1-0.6-3.6-0.6c-1.4,0-3.6,0.9-5.1,2.6
	c-1,1.1-1.7,2.5-2.1,4.3C25,17.9,24.9,18.7,24.9,19.7 M17.9,18.9c-0.3,0-0.4-0.2-0.4-0.2c1.8-4.9,1.9-8.1,1.9-8.4
	c-2.6,0-3.8,0.9-3.8,0.9c0,0.1,0,0.3,0.1,0.4c0.1,0,0.2,0,0.3,0c0.6,0,1.3,0.4,1.3,2.1c0,2.2-1.5,5.4-1.5,8.6v0.1
	c0.1,0,0.6,0.1,1.4,0.1c0.4,0,0.7,0,1.2-0.1c-0.1-0.3-0.2-0.6-0.2-1.1c0-3.1,2.9-9,4.7-9c0.2,0,0.6,0,0.9,0.7c0.5-0.2,1-0.8,1-1.6
	c0-0.6-0.4-1.2-1.2-1.2C20.6,10.2,17.9,18.9,17.9,18.9 M7.2,13.7l1.4-7.2c0,0,0.3,0,0.9,0s1.4,0,2.4,0.2c2,0.4,2.1,2.6,2.2,2.9
	c0,0.3,0.2,0.3,0.3,0.3h0.4C15,8.7,15,7.9,15,7.2c0-1-0.1-1.6-0.1-1.6c-0.2,0-2.5-0.1-4.7-0.1c-1.2,0-4.6,0-5.3,0.1
	C4.7,5.7,4.6,5.9,4.6,6v0.3c0,0,1.7-0.2,1.7,1.3c0,0.1,0,0.3-0.1,0.6L4,19.5c-0.4,1.8-1,2.1-1.8,2.1c-0.3,0-0.3,0.1-0.3,0.4v0.3
	c0.4,0.1,2.3,0.2,2.8,0.2c0.8,0,1.6,0,2.6-0.1c0.2,0,0.3-0.2,0.3-0.3v-0.3c-0.9,0-1.7-0.1-1.7-1.2c0-0.1,0-0.3,0-0.5l1.1-5.6h2.2
	c0.5,0,1.3,0.2,1.3,1.7c0,0.1,0,0.3,0,0.6c0,0.2,0,0.3,0.2,0.3l0.3,0c0.7-2.1,0.8-5,0.8-5.3c0-0.3-0.1-0.3-0.2-0.3l-0.4,0
	c-0.3,1.7-1,2.3-2.1,2.3H7.2z"/>
</svg>
